<?xml version="1.0" encoding="iso-8859-1"?>
<!-- Generator: Adobe Illustrator 16.0.0, SVG Export Plug-In . SVG Version: 6.00 Build 0)  -->
<!DOCTYPE svg PUBLIC "-//W3C//DTD SVG 1.1//EN" "http://www.w3.org/Graphics/SVG/1.1/DTD/svg11.dtd">
<svg version="1.1" id="Capa_1" xmlns="http://www.w3.org/2000/svg" xmlns:xlink="http://www.w3.org/1999/xlink" x="0px" y="0px"
	 width="497.907px" height="497.907px" viewBox="0 0 497.907 497.907" style="enable-background:new 0 0 497.907 497.907;"
	 xml:space="preserve">
<g>
	<g>
		<path d="M414.573,286.081c-1.543-1.97-10.123-11.958-27.307-18.511c-7.009-2.169-23.992-4.338-41.958-7.921l13.458-20.438
			l6.423,4.214c4.255,2.792,9.968,1.606,12.76-2.647l-13.544-8.89l8.11-12.359l-20.471,4.248l-23.043-15.122
			c-2.792,4.255-1.605,9.968,2.649,12.762l5.086,3.337l-18.505,28.102c-10.653-3.461-19.839-7.792-25.165-13.386
			c-2.144-2.249-5.188-9.031-3.217-20.674c34.41-20.841,58.351-66.237,58.351-112.994C348.201,42.102,322.871,0,248.956,0
			S149.71,42.102,149.71,105.801c0,46.756,23.94,92.152,58.351,112.994c1.971,11.643-1.074,18.425-3.217,20.674
			c-5.327,5.594-14.511,9.925-25.165,13.386l-18.505-28.102l5.086-3.337c4.255-2.793,5.442-8.506,2.649-12.762l-23.043,15.122
			l-20.471-4.248l8.111,12.359l-13.544,8.89c2.792,4.253,8.505,5.439,12.761,2.647l6.422-4.214l13.458,20.438
			c-17.965,3.583-34.949,5.752-41.958,7.921c-17.183,6.553-25.762,16.541-27.306,18.511c-31.599,46.91-35.18,152.161-35.208,153.207
			c0.282,14.006,4.444,18.791,5.88,19.38c70.337,31.294,153.134,39.239,193.75,39.239c0.386,0,0.8-0.006,1.192-0.007
			c0.393,0.001,0.807,0.007,1.191,0.007c40.616,0,123.413-7.945,193.75-39.239c1.437-0.589,5.599-5.374,5.881-19.38
			C449.752,438.242,446.171,332.991,414.573,286.081z M198.588,135.108c-27.123,0-38.15-17.081-38.15-38.15
			c0-21.07,17.081-38.15,38.15-38.15h100.74c21.07,0,38.149,17.081,38.149,38.15c0,21.069-11.027,38.15-38.149,38.15
			c-23.164,0-23.545-25.227-50.37-25.227S221.752,135.108,198.588,135.108z"/>
		<path d="M437.556,120.422l1.418,0.931c3.134,2.057,7.341,1.183,9.396-1.95c2.056-3.133,1.183-7.34-1.95-9.396L421.724,93.8
			c-3.133-2.056-7.341-1.184-9.396,1.951c-2.058,3.133-1.184,7.339,1.951,9.396l1.417,0.93l-4.389,6.686l11.076-2.298l14.158,9.292
			l-34.525,7.167l-12.608,19.214l36.205-7.514L437.556,120.422z"/>
		<polygon points="381.809,205.37 394.418,186.156 358.214,193.67 345.605,212.885 		"/>
		<polygon points="416.321,152.782 380.116,160.296 367.506,179.511 403.71,171.997 		"/>
		<path d="M58.942,121.353l1.418-0.931l11.944,18.202l36.205,7.514l-12.61-19.214l-34.525-7.167l14.158-9.292l11.076,2.298
			l-4.388-6.686l1.418-0.93c3.133-2.058,4.007-6.264,1.951-9.396c-2.056-3.135-6.264-4.007-9.397-1.951l-24.696,16.207
			c-3.132,2.056-4.006,6.264-1.95,9.396C51.603,122.537,55.81,123.41,58.942,121.353z"/>
		<polygon points="116.107,205.37 152.312,212.885 139.703,193.67 103.499,186.156 		"/>
		<polygon points="94.207,171.997 130.411,179.511 117.801,160.296 81.597,152.782 		"/>
	</g>
</g>
<g>
</g>
<g>
</g>
<g>
</g>
<g>
</g>
<g>
</g>
<g>
</g>
<g>
</g>
<g>
</g>
<g>
</g>
<g>
</g>
<g>
</g>
<g>
</g>
<g>
</g>
<g>
</g>
<g>
</g>
</svg>
